<mxfile host="app.diagrams.net" modified="2022-05-22T16:57:35.211Z" agent="5.0 (X11)" etag="adlkfraJrFH9y7I1HhXc" version="17.4.5" type="github">
  <diagram id="C5RBs43oDa-KdzZeNtuy" name="Page-1">
    <mxGraphModel dx="2860" dy="1225" grid="1" gridSize="10" guides="1" tooltips="1" connect="1" arrows="1" fold="1" page="1" pageScale="1" pageWidth="2339" pageHeight="3300" math="0" shadow="1">
      <root>
        <mxCell id="WIyWlLk6GJQsqaUBKTNV-0" />
        <mxCell id="WIyWlLk6GJQsqaUBKTNV-1" parent="WIyWlLk6GJQsqaUBKTNV-0" />
        <mxCell id="WIyWlLk6GJQsqaUBKTNV-2" value="" style="rounded=0;html=1;jettySize=auto;orthogonalLoop=1;fontSize=11;endArrow=block;endFill=0;endSize=8;strokeWidth=1;shadow=0;labelBackgroundColor=none;edgeStyle=orthogonalEdgeStyle;" parent="WIyWlLk6GJQsqaUBKTNV-1" source="WIyWlLk6GJQsqaUBKTNV-3" target="WIyWlLk6GJQsqaUBKTNV-6" edge="1">
          <mxGeometry relative="1" as="geometry" />
        </mxCell>
        <mxCell id="WIyWlLk6GJQsqaUBKTNV-3" value="&lt;pre style=&quot;background-color: #ffffff ; color: #000000 ; font-family: &amp;#34;jetbrains mono&amp;#34; , monospace ; font-size: 9.8pt&quot;&gt;onLoadResource&lt;/pre&gt;" style="rounded=1;whiteSpace=wrap;html=1;fontSize=12;glass=0;strokeWidth=1;shadow=0;" parent="WIyWlLk6GJQsqaUBKTNV-1" vertex="1">
          <mxGeometry x="160" y="80" width="120" height="40" as="geometry" />
        </mxCell>
        <mxCell id="WIyWlLk6GJQsqaUBKTNV-4" value="&lt;div&gt;Không&lt;/div&gt;" style="rounded=0;html=1;jettySize=auto;orthogonalLoop=1;fontSize=11;endArrow=block;endFill=0;endSize=8;strokeWidth=1;shadow=0;labelBackgroundColor=none;edgeStyle=orthogonalEdgeStyle;" parent="WIyWlLk6GJQsqaUBKTNV-1" source="WIyWlLk6GJQsqaUBKTNV-6" target="WIyWlLk6GJQsqaUBKTNV-10" edge="1">
          <mxGeometry y="20" relative="1" as="geometry">
            <mxPoint as="offset" />
          </mxGeometry>
        </mxCell>
        <mxCell id="WIyWlLk6GJQsqaUBKTNV-5" value="&lt;div&gt;Đúng&lt;/div&gt;" style="edgeStyle=orthogonalEdgeStyle;rounded=0;html=1;jettySize=auto;orthogonalLoop=1;fontSize=11;endArrow=block;endFill=0;endSize=8;strokeWidth=1;shadow=0;labelBackgroundColor=none;" parent="WIyWlLk6GJQsqaUBKTNV-1" source="WIyWlLk6GJQsqaUBKTNV-6" target="WIyWlLk6GJQsqaUBKTNV-7" edge="1">
          <mxGeometry y="10" relative="1" as="geometry">
            <mxPoint as="offset" />
          </mxGeometry>
        </mxCell>
        <mxCell id="WIyWlLk6GJQsqaUBKTNV-6" value="&lt;div&gt;mAdFilter.checkThroughFilters&lt;/div&gt;&lt;div&gt;(Kiểm tra có phải link quảng cáo hay không)&lt;br&gt;&lt;/div&gt;" style="rhombus;whiteSpace=wrap;html=1;shadow=0;fontFamily=Helvetica;fontSize=12;align=center;strokeWidth=1;spacing=6;spacingTop=-4;" parent="WIyWlLk6GJQsqaUBKTNV-1" vertex="1">
          <mxGeometry x="80" y="170" width="280" height="100" as="geometry" />
        </mxCell>
        <mxCell id="WIyWlLk6GJQsqaUBKTNV-7" value="&lt;div&gt;Kết thúc hàm&lt;/div&gt;" style="rounded=1;whiteSpace=wrap;html=1;fontSize=12;glass=0;strokeWidth=1;shadow=0;" parent="WIyWlLk6GJQsqaUBKTNV-1" vertex="1">
          <mxGeometry x="490" y="200" width="120" height="40" as="geometry" />
        </mxCell>
        <mxCell id="WIyWlLk6GJQsqaUBKTNV-8" value="&lt;div&gt;Sai&lt;/div&gt;" style="rounded=0;html=1;jettySize=auto;orthogonalLoop=1;fontSize=11;endArrow=block;endFill=0;endSize=8;strokeWidth=1;shadow=0;labelBackgroundColor=none;edgeStyle=orthogonalEdgeStyle;" parent="WIyWlLk6GJQsqaUBKTNV-1" source="WIyWlLk6GJQsqaUBKTNV-10" target="WIyWlLk6GJQsqaUBKTNV-11" edge="1">
          <mxGeometry x="0.3333" y="20" relative="1" as="geometry">
            <mxPoint as="offset" />
          </mxGeometry>
        </mxCell>
        <mxCell id="WIyWlLk6GJQsqaUBKTNV-9" value="&lt;div&gt;Đúng&lt;/div&gt;" style="edgeStyle=orthogonalEdgeStyle;rounded=0;html=1;jettySize=auto;orthogonalLoop=1;fontSize=11;endArrow=block;endFill=0;endSize=8;strokeWidth=1;shadow=0;labelBackgroundColor=none;" parent="WIyWlLk6GJQsqaUBKTNV-1" source="WIyWlLk6GJQsqaUBKTNV-10" target="WIyWlLk6GJQsqaUBKTNV-12" edge="1">
          <mxGeometry y="10" relative="1" as="geometry">
            <mxPoint as="offset" />
          </mxGeometry>
        </mxCell>
        <mxCell id="WIyWlLk6GJQsqaUBKTNV-10" value="&lt;pre style=&quot;background-color: #ffffff ; color: #000000 ; font-family: &amp;#34;jetbrains mono&amp;#34; , monospace ; font-size: 9.8pt&quot;&gt;XvdSession.&lt;span style=&quot;font-style: italic&quot;&gt;getInstance&lt;/span&gt;().checkAndAddVideoUrl&lt;br&gt;(Kiểm tra xem link có phải xvideo)&lt;br&gt;&lt;/pre&gt;" style="rhombus;whiteSpace=wrap;html=1;shadow=0;fontFamily=Helvetica;fontSize=12;align=center;strokeWidth=1;spacing=6;spacingTop=-4;" parent="WIyWlLk6GJQsqaUBKTNV-1" vertex="1">
          <mxGeometry x="70" y="380" width="300" height="130" as="geometry" />
        </mxCell>
        <mxCell id="pjrP_jKO1gyf8-xWJFbc-2" value="" style="edgeStyle=orthogonalEdgeStyle;rounded=0;orthogonalLoop=1;jettySize=auto;html=1;" edge="1" parent="WIyWlLk6GJQsqaUBKTNV-1" source="WIyWlLk6GJQsqaUBKTNV-11" target="pjrP_jKO1gyf8-xWJFbc-1">
          <mxGeometry relative="1" as="geometry" />
        </mxCell>
        <mxCell id="WIyWlLk6GJQsqaUBKTNV-11" value="&lt;div&gt;Lấy user-agent và cookie của site đang truy cập&lt;/div&gt;" style="rounded=1;whiteSpace=wrap;html=1;fontSize=12;glass=0;strokeWidth=1;shadow=0;" parent="WIyWlLk6GJQsqaUBKTNV-1" vertex="1">
          <mxGeometry x="140" y="580" width="160" height="80" as="geometry" />
        </mxCell>
        <mxCell id="WIyWlLk6GJQsqaUBKTNV-12" value="&lt;div&gt;Xử lý lấy thumb và video link &lt;br&gt;&lt;/div&gt;" style="rounded=1;whiteSpace=wrap;html=1;fontSize=12;glass=0;strokeWidth=1;shadow=0;" parent="WIyWlLk6GJQsqaUBKTNV-1" vertex="1">
          <mxGeometry x="490" y="425" width="120" height="40" as="geometry" />
        </mxCell>
        <mxCell id="pjrP_jKO1gyf8-xWJFbc-5" value="&lt;div&gt;Sai&lt;/div&gt;" style="edgeStyle=orthogonalEdgeStyle;rounded=0;orthogonalLoop=1;jettySize=auto;html=1;" edge="1" parent="WIyWlLk6GJQsqaUBKTNV-1" source="pjrP_jKO1gyf8-xWJFbc-1" target="pjrP_jKO1gyf8-xWJFbc-4">
          <mxGeometry relative="1" as="geometry" />
        </mxCell>
        <mxCell id="pjrP_jKO1gyf8-xWJFbc-12" value="&lt;div&gt;Đúng&lt;/div&gt;" style="edgeStyle=orthogonalEdgeStyle;rounded=0;orthogonalLoop=1;jettySize=auto;html=1;" edge="1" parent="WIyWlLk6GJQsqaUBKTNV-1" source="pjrP_jKO1gyf8-xWJFbc-1" target="pjrP_jKO1gyf8-xWJFbc-11">
          <mxGeometry relative="1" as="geometry" />
        </mxCell>
        <mxCell id="pjrP_jKO1gyf8-xWJFbc-1" value="&lt;div&gt;Kiểm tra link xem có phảiVimeo hay không&lt;/div&gt;" style="rhombus;whiteSpace=wrap;html=1;rounded=1;glass=0;strokeWidth=1;shadow=0;" vertex="1" parent="WIyWlLk6GJQsqaUBKTNV-1">
          <mxGeometry x="70" y="740" width="300" height="110" as="geometry" />
        </mxCell>
        <mxCell id="pjrP_jKO1gyf8-xWJFbc-14" value="&lt;div&gt;Đúng&lt;/div&gt;" style="edgeStyle=orthogonalEdgeStyle;rounded=0;orthogonalLoop=1;jettySize=auto;html=1;" edge="1" parent="WIyWlLk6GJQsqaUBKTNV-1" source="pjrP_jKO1gyf8-xWJFbc-4" target="pjrP_jKO1gyf8-xWJFbc-13">
          <mxGeometry relative="1" as="geometry" />
        </mxCell>
        <mxCell id="pjrP_jKO1gyf8-xWJFbc-19" value="Sai" style="edgeStyle=orthogonalEdgeStyle;rounded=0;orthogonalLoop=1;jettySize=auto;html=1;" edge="1" parent="WIyWlLk6GJQsqaUBKTNV-1" source="pjrP_jKO1gyf8-xWJFbc-4" target="pjrP_jKO1gyf8-xWJFbc-18">
          <mxGeometry relative="1" as="geometry" />
        </mxCell>
        <mxCell id="pjrP_jKO1gyf8-xWJFbc-4" value="&lt;div&gt;Kiểm tra xem có phải dailymotion hay ko&lt;/div&gt;" style="rhombus;whiteSpace=wrap;html=1;rounded=1;glass=0;strokeWidth=1;shadow=0;" vertex="1" parent="WIyWlLk6GJQsqaUBKTNV-1">
          <mxGeometry x="80" y="920" width="280" height="130" as="geometry" />
        </mxCell>
        <mxCell id="pjrP_jKO1gyf8-xWJFbc-39" value="" style="edgeStyle=orthogonalEdgeStyle;rounded=0;orthogonalLoop=1;jettySize=auto;html=1;" edge="1" parent="WIyWlLk6GJQsqaUBKTNV-1" source="pjrP_jKO1gyf8-xWJFbc-11" target="pjrP_jKO1gyf8-xWJFbc-38">
          <mxGeometry relative="1" as="geometry" />
        </mxCell>
        <mxCell id="pjrP_jKO1gyf8-xWJFbc-11" value="&lt;div&gt;Gửi request lấy thông tin video từ video ID&lt;/div&gt;" style="whiteSpace=wrap;html=1;rounded=1;glass=0;strokeWidth=1;shadow=0;" vertex="1" parent="WIyWlLk6GJQsqaUBKTNV-1">
          <mxGeometry x="490" y="765" width="120" height="60" as="geometry" />
        </mxCell>
        <mxCell id="pjrP_jKO1gyf8-xWJFbc-13" value="&lt;div&gt;Gửi request lấy thông tin video từ ID&lt;/div&gt;" style="whiteSpace=wrap;html=1;rounded=1;glass=0;strokeWidth=1;shadow=0;" vertex="1" parent="WIyWlLk6GJQsqaUBKTNV-1">
          <mxGeometry x="490" y="955" width="120" height="60" as="geometry" />
        </mxCell>
        <mxCell id="pjrP_jKO1gyf8-xWJFbc-23" value="Không" style="edgeStyle=orthogonalEdgeStyle;rounded=0;orthogonalLoop=1;jettySize=auto;html=1;" edge="1" parent="WIyWlLk6GJQsqaUBKTNV-1" source="pjrP_jKO1gyf8-xWJFbc-18" target="pjrP_jKO1gyf8-xWJFbc-22">
          <mxGeometry x="-0.0769" y="15" relative="1" as="geometry">
            <mxPoint as="offset" />
          </mxGeometry>
        </mxCell>
        <mxCell id="pjrP_jKO1gyf8-xWJFbc-25" value="&lt;div&gt;Có&lt;/div&gt;" style="edgeStyle=orthogonalEdgeStyle;rounded=0;orthogonalLoop=1;jettySize=auto;html=1;" edge="1" parent="WIyWlLk6GJQsqaUBKTNV-1" source="pjrP_jKO1gyf8-xWJFbc-18" target="pjrP_jKO1gyf8-xWJFbc-24">
          <mxGeometry relative="1" as="geometry" />
        </mxCell>
        <mxCell id="pjrP_jKO1gyf8-xWJFbc-18" value="&lt;div&gt;Kiểm tra xem có thể là link video không?&lt;/div&gt;&lt;div&gt;Trong link video sẽ có chứa: mp4, m3u8, video, ..&lt;/div&gt;" style="rhombus;whiteSpace=wrap;html=1;rounded=1;glass=0;strokeWidth=1;shadow=0;" vertex="1" parent="WIyWlLk6GJQsqaUBKTNV-1">
          <mxGeometry x="80" y="1130" width="280" height="130" as="geometry" />
        </mxCell>
        <mxCell id="pjrP_jKO1gyf8-xWJFbc-22" value="&lt;div&gt;Kết thúc xử lý&lt;/div&gt;" style="whiteSpace=wrap;html=1;rounded=1;glass=0;strokeWidth=1;shadow=0;" vertex="1" parent="WIyWlLk6GJQsqaUBKTNV-1">
          <mxGeometry x="490" y="1165" width="120" height="60" as="geometry" />
        </mxCell>
        <mxCell id="pjrP_jKO1gyf8-xWJFbc-27" value="" style="edgeStyle=orthogonalEdgeStyle;rounded=0;orthogonalLoop=1;jettySize=auto;html=1;" edge="1" parent="WIyWlLk6GJQsqaUBKTNV-1" source="pjrP_jKO1gyf8-xWJFbc-24" target="pjrP_jKO1gyf8-xWJFbc-26">
          <mxGeometry relative="1" as="geometry" />
        </mxCell>
        <mxCell id="pjrP_jKO1gyf8-xWJFbc-24" value="&lt;pre style=&quot;background-color: #ffffff ; color: #000000 ; font-family: &amp;quot;jetbrains mono&amp;quot; , monospace ; font-size: 9.8pt&quot;&gt;threadCheckVideoExist&lt;/pre&gt;" style="whiteSpace=wrap;html=1;rounded=1;glass=0;strokeWidth=1;shadow=0;" vertex="1" parent="WIyWlLk6GJQsqaUBKTNV-1">
          <mxGeometry x="120" y="1375" width="200" height="75" as="geometry" />
        </mxCell>
        <mxCell id="pjrP_jKO1gyf8-xWJFbc-29" value="&lt;div&gt;Sai&lt;/div&gt;" style="edgeStyle=orthogonalEdgeStyle;rounded=0;orthogonalLoop=1;jettySize=auto;html=1;" edge="1" parent="WIyWlLk6GJQsqaUBKTNV-1" source="pjrP_jKO1gyf8-xWJFbc-26" target="pjrP_jKO1gyf8-xWJFbc-28">
          <mxGeometry x="0.0009" y="9" relative="1" as="geometry">
            <mxPoint as="offset" />
          </mxGeometry>
        </mxCell>
        <mxCell id="pjrP_jKO1gyf8-xWJFbc-31" value="Đúng" style="edgeStyle=orthogonalEdgeStyle;rounded=0;orthogonalLoop=1;jettySize=auto;html=1;" edge="1" parent="WIyWlLk6GJQsqaUBKTNV-1" source="pjrP_jKO1gyf8-xWJFbc-26" target="pjrP_jKO1gyf8-xWJFbc-30">
          <mxGeometry relative="1" as="geometry" />
        </mxCell>
        <mxCell id="pjrP_jKO1gyf8-xWJFbc-26" value="&lt;div&gt;Kiểm tra xem link có phải dạng m3u8 không&lt;/div&gt;" style="rhombus;whiteSpace=wrap;html=1;rounded=1;glass=0;strokeWidth=1;shadow=0;" vertex="1" parent="WIyWlLk6GJQsqaUBKTNV-1">
          <mxGeometry x="80" y="1527.5" width="280" height="162.5" as="geometry" />
        </mxCell>
        <mxCell id="pjrP_jKO1gyf8-xWJFbc-37" value="" style="edgeStyle=orthogonalEdgeStyle;rounded=0;orthogonalLoop=1;jettySize=auto;html=1;" edge="1" parent="WIyWlLk6GJQsqaUBKTNV-1" source="pjrP_jKO1gyf8-xWJFbc-28" target="pjrP_jKO1gyf8-xWJFbc-36">
          <mxGeometry relative="1" as="geometry" />
        </mxCell>
        <mxCell id="pjrP_jKO1gyf8-xWJFbc-28" value="&lt;pre style=&quot;background-color: #ffffff ; color: #000000 ; font-family: &amp;quot;jetbrains mono&amp;quot; , monospace ; font-size: 9.8pt&quot;&gt;getVideoProcess&lt;/pre&gt;" style="whiteSpace=wrap;html=1;rounded=1;glass=0;strokeWidth=1;shadow=0;" vertex="1" parent="WIyWlLk6GJQsqaUBKTNV-1">
          <mxGeometry x="870" y="1578.75" width="180" height="60" as="geometry" />
        </mxCell>
        <mxCell id="pjrP_jKO1gyf8-xWJFbc-34" value="Đúng" style="edgeStyle=orthogonalEdgeStyle;rounded=0;orthogonalLoop=1;jettySize=auto;html=1;" edge="1" parent="WIyWlLk6GJQsqaUBKTNV-1" source="pjrP_jKO1gyf8-xWJFbc-30" target="pjrP_jKO1gyf8-xWJFbc-33">
          <mxGeometry relative="1" as="geometry" />
        </mxCell>
        <mxCell id="pjrP_jKO1gyf8-xWJFbc-30" value="&lt;div&gt;Check link có phải playlist không?&lt;/div&gt;&lt;div&gt;(File playlist(m3u8 master) là file chứa các m3u8 con)&lt;/div&gt;&lt;div&gt;M3U8Util.parseM3u8Playlist size &amp;gt; 0&lt;br&gt;&lt;/div&gt;" style="rhombus;whiteSpace=wrap;html=1;rounded=1;glass=0;strokeWidth=1;shadow=0;" vertex="1" parent="WIyWlLk6GJQsqaUBKTNV-1">
          <mxGeometry x="50" y="1770" width="340" height="162.5" as="geometry" />
        </mxCell>
        <mxCell id="pjrP_jKO1gyf8-xWJFbc-32" value="&lt;div&gt;Không&lt;/div&gt;" style="endArrow=classic;html=1;rounded=0;exitX=1;exitY=0.5;exitDx=0;exitDy=0;entryX=0.5;entryY=1;entryDx=0;entryDy=0;" edge="1" parent="WIyWlLk6GJQsqaUBKTNV-1" source="pjrP_jKO1gyf8-xWJFbc-30" target="pjrP_jKO1gyf8-xWJFbc-28">
          <mxGeometry x="-0.551" y="11" width="50" height="50" relative="1" as="geometry">
            <mxPoint x="570" y="1720" as="sourcePoint" />
            <mxPoint x="620" y="1670" as="targetPoint" />
            <Array as="points">
              <mxPoint x="960" y="1850" />
            </Array>
            <mxPoint as="offset" />
          </mxGeometry>
        </mxCell>
        <mxCell id="pjrP_jKO1gyf8-xWJFbc-33" value="Lấy từng m3u8 link từ M3U8Util.parseM3u8Playlist" style="whiteSpace=wrap;html=1;rounded=1;glass=0;strokeWidth=1;shadow=0;" vertex="1" parent="WIyWlLk6GJQsqaUBKTNV-1">
          <mxGeometry x="60" y="2063.75" width="320" height="60" as="geometry" />
        </mxCell>
        <mxCell id="pjrP_jKO1gyf8-xWJFbc-35" value="" style="endArrow=classic;html=1;rounded=0;exitX=1;exitY=0.5;exitDx=0;exitDy=0;entryX=0.5;entryY=1;entryDx=0;entryDy=0;" edge="1" parent="WIyWlLk6GJQsqaUBKTNV-1" source="pjrP_jKO1gyf8-xWJFbc-33" target="pjrP_jKO1gyf8-xWJFbc-28">
          <mxGeometry width="50" height="50" relative="1" as="geometry">
            <mxPoint x="570" y="1960" as="sourcePoint" />
            <mxPoint x="620" y="1910" as="targetPoint" />
            <Array as="points">
              <mxPoint x="960" y="2090" />
            </Array>
          </mxGeometry>
        </mxCell>
        <mxCell id="pjrP_jKO1gyf8-xWJFbc-49" value="&lt;pre style=&quot;background-color: #ffffff ; color: #000000 ; font-family: &amp;quot;jetbrains mono&amp;quot; , monospace ; font-size: 9.8pt&quot;&gt;onVideoFound&lt;/pre&gt;" style="edgeStyle=orthogonalEdgeStyle;rounded=0;orthogonalLoop=1;jettySize=auto;html=1;" edge="1" parent="WIyWlLk6GJQsqaUBKTNV-1" source="pjrP_jKO1gyf8-xWJFbc-36">
          <mxGeometry relative="1" as="geometry">
            <mxPoint x="1359.9999999999995" y="1498.75" as="targetPoint" />
          </mxGeometry>
        </mxCell>
        <mxCell id="pjrP_jKO1gyf8-xWJFbc-36" value="&lt;div&gt;VideoContentSearch&lt;/div&gt;&lt;div&gt;Dùng URLConnection và OkHttpClient để lấy type và size của video&lt;br&gt;&lt;/div&gt;" style="whiteSpace=wrap;html=1;rounded=1;glass=0;strokeWidth=1;shadow=0;" vertex="1" parent="WIyWlLk6GJQsqaUBKTNV-1">
          <mxGeometry x="1210" y="1578.75" width="300" height="60" as="geometry" />
        </mxCell>
        <mxCell id="pjrP_jKO1gyf8-xWJFbc-38" value="&lt;div&gt;Lấy video link&lt;/div&gt;" style="whiteSpace=wrap;html=1;rounded=1;glass=0;strokeWidth=1;shadow=0;" vertex="1" parent="WIyWlLk6GJQsqaUBKTNV-1">
          <mxGeometry x="900" y="765" width="120" height="60" as="geometry" />
        </mxCell>
        <mxCell id="pjrP_jKO1gyf8-xWJFbc-40" value="" style="endArrow=classic;html=1;rounded=0;exitX=0.5;exitY=1;exitDx=0;exitDy=0;entryX=0.5;entryY=0;entryDx=0;entryDy=0;" edge="1" parent="WIyWlLk6GJQsqaUBKTNV-1" source="pjrP_jKO1gyf8-xWJFbc-38" target="pjrP_jKO1gyf8-xWJFbc-28">
          <mxGeometry width="50" height="50" relative="1" as="geometry">
            <mxPoint x="560" y="1100" as="sourcePoint" />
            <mxPoint x="610" y="1050" as="targetPoint" />
          </mxGeometry>
        </mxCell>
        <mxCell id="pjrP_jKO1gyf8-xWJFbc-42" value="&lt;div&gt;Lấy video link&lt;/div&gt;" style="whiteSpace=wrap;html=1;rounded=1;glass=0;strokeWidth=1;shadow=0;" vertex="1" parent="WIyWlLk6GJQsqaUBKTNV-1">
          <mxGeometry x="740" y="955" width="120" height="60" as="geometry" />
        </mxCell>
        <mxCell id="pjrP_jKO1gyf8-xWJFbc-43" value="" style="endArrow=classic;html=1;rounded=0;exitX=1;exitY=0.5;exitDx=0;exitDy=0;entryX=0;entryY=0.5;entryDx=0;entryDy=0;" edge="1" parent="WIyWlLk6GJQsqaUBKTNV-1" source="pjrP_jKO1gyf8-xWJFbc-13" target="pjrP_jKO1gyf8-xWJFbc-42">
          <mxGeometry width="50" height="50" relative="1" as="geometry">
            <mxPoint x="560" y="1130" as="sourcePoint" />
            <mxPoint x="610" y="1080" as="targetPoint" />
          </mxGeometry>
        </mxCell>
        <mxCell id="pjrP_jKO1gyf8-xWJFbc-44" value="" style="endArrow=classic;html=1;rounded=0;exitX=1;exitY=0.5;exitDx=0;exitDy=0;entryX=0.5;entryY=0;entryDx=0;entryDy=0;" edge="1" parent="WIyWlLk6GJQsqaUBKTNV-1" source="pjrP_jKO1gyf8-xWJFbc-42" target="pjrP_jKO1gyf8-xWJFbc-28">
          <mxGeometry width="50" height="50" relative="1" as="geometry">
            <mxPoint x="560" y="1130" as="sourcePoint" />
            <mxPoint x="610" y="1080" as="targetPoint" />
            <Array as="points">
              <mxPoint x="960" y="985" />
            </Array>
          </mxGeometry>
        </mxCell>
        <mxCell id="pjrP_jKO1gyf8-xWJFbc-45" value="&lt;div&gt;Lấy video link&lt;/div&gt;" style="whiteSpace=wrap;html=1;rounded=1;glass=0;strokeWidth=1;shadow=0;" vertex="1" parent="WIyWlLk6GJQsqaUBKTNV-1">
          <mxGeometry x="1080" y="415" width="120" height="60" as="geometry" />
        </mxCell>
        <mxCell id="pjrP_jKO1gyf8-xWJFbc-46" value="" style="endArrow=classic;html=1;rounded=0;exitX=1;exitY=0.5;exitDx=0;exitDy=0;" edge="1" parent="WIyWlLk6GJQsqaUBKTNV-1" source="WIyWlLk6GJQsqaUBKTNV-12" target="pjrP_jKO1gyf8-xWJFbc-45">
          <mxGeometry width="50" height="50" relative="1" as="geometry">
            <mxPoint x="510" y="580" as="sourcePoint" />
            <mxPoint x="560" y="530" as="targetPoint" />
          </mxGeometry>
        </mxCell>
        <mxCell id="pjrP_jKO1gyf8-xWJFbc-47" value="" style="endArrow=classic;html=1;rounded=0;exitX=0.5;exitY=1;exitDx=0;exitDy=0;entryX=0.5;entryY=0;entryDx=0;entryDy=0;" edge="1" parent="WIyWlLk6GJQsqaUBKTNV-1" source="pjrP_jKO1gyf8-xWJFbc-45" target="pjrP_jKO1gyf8-xWJFbc-28">
          <mxGeometry width="50" height="50" relative="1" as="geometry">
            <mxPoint x="510" y="650" as="sourcePoint" />
            <mxPoint x="560" y="600" as="targetPoint" />
            <Array as="points">
              <mxPoint x="1140" y="990" />
              <mxPoint x="960" y="990" />
            </Array>
          </mxGeometry>
        </mxCell>
        <mxCell id="pjrP_jKO1gyf8-xWJFbc-54" value="&lt;div&gt;Chưa có trong danh sách video đã lưu&lt;/div&gt;" style="edgeStyle=orthogonalEdgeStyle;rounded=0;orthogonalLoop=1;jettySize=auto;html=1;" edge="1" parent="WIyWlLk6GJQsqaUBKTNV-1" source="pjrP_jKO1gyf8-xWJFbc-50" target="pjrP_jKO1gyf8-xWJFbc-53">
          <mxGeometry relative="1" as="geometry" />
        </mxCell>
        <mxCell id="pjrP_jKO1gyf8-xWJFbc-56" value="&lt;div&gt;Đã có trong danh sách &lt;br&gt;&lt;/div&gt;" style="edgeStyle=orthogonalEdgeStyle;rounded=0;orthogonalLoop=1;jettySize=auto;html=1;" edge="1" parent="WIyWlLk6GJQsqaUBKTNV-1" source="pjrP_jKO1gyf8-xWJFbc-50" target="pjrP_jKO1gyf8-xWJFbc-55">
          <mxGeometry relative="1" as="geometry" />
        </mxCell>
        <mxCell id="pjrP_jKO1gyf8-xWJFbc-50" value="&lt;div&gt;Nhận được video link, type và size của video.&lt;/div&gt;&lt;div&gt;Kiểm tra xem link này đã được thêm vào danh sách video chưa&lt;br&gt;&lt;/div&gt;" style="rhombus;whiteSpace=wrap;html=1;" vertex="1" parent="WIyWlLk6GJQsqaUBKTNV-1">
          <mxGeometry x="1170" y="1330" width="380" height="170" as="geometry" />
        </mxCell>
        <mxCell id="pjrP_jKO1gyf8-xWJFbc-60" value="Đúng" style="edgeStyle=orthogonalEdgeStyle;rounded=0;orthogonalLoop=1;jettySize=auto;html=1;" edge="1" parent="WIyWlLk6GJQsqaUBKTNV-1" source="pjrP_jKO1gyf8-xWJFbc-53" target="pjrP_jKO1gyf8-xWJFbc-59">
          <mxGeometry relative="1" as="geometry" />
        </mxCell>
        <mxCell id="pjrP_jKO1gyf8-xWJFbc-62" value="" style="edgeStyle=orthogonalEdgeStyle;rounded=0;orthogonalLoop=1;jettySize=auto;html=1;" edge="1" parent="WIyWlLk6GJQsqaUBKTNV-1" source="pjrP_jKO1gyf8-xWJFbc-53" target="pjrP_jKO1gyf8-xWJFbc-61">
          <mxGeometry relative="1" as="geometry" />
        </mxCell>
        <mxCell id="pjrP_jKO1gyf8-xWJFbc-53" value="Video link có res, hoặc size != 0" style="rhombus;whiteSpace=wrap;html=1;" vertex="1" parent="WIyWlLk6GJQsqaUBKTNV-1">
          <mxGeometry x="1140" y="1010" width="440" height="195" as="geometry" />
        </mxCell>
        <mxCell id="pjrP_jKO1gyf8-xWJFbc-55" value="Loại bỏ" style="rounded=1;whiteSpace=wrap;html=1;" vertex="1" parent="WIyWlLk6GJQsqaUBKTNV-1">
          <mxGeometry x="1760" y="1385" width="120" height="60" as="geometry" />
        </mxCell>
        <mxCell id="pjrP_jKO1gyf8-xWJFbc-59" value="Thêm vào danh sách video cần tải và notify Download button " style="rounded=1;whiteSpace=wrap;html=1;" vertex="1" parent="WIyWlLk6GJQsqaUBKTNV-1">
          <mxGeometry x="1820" y="1077.5" width="120" height="60" as="geometry" />
        </mxCell>
        <mxCell id="pjrP_jKO1gyf8-xWJFbc-61" value="&lt;div&gt;Loại bỏ link&lt;/div&gt;" style="rounded=1;whiteSpace=wrap;html=1;" vertex="1" parent="WIyWlLk6GJQsqaUBKTNV-1">
          <mxGeometry x="1300" y="802.5" width="120" height="60" as="geometry" />
        </mxCell>
      </root>
    </mxGraphModel>
  </diagram>
</mxfile>
